<svg width="63" height="64" viewBox="0 0 63 64" fill="none" xmlns="http://www.w3.org/2000/svg">
<path id="Vector" d="M43.5998 1.46717C58.9667 2.71468 62.3708 1.24204 62.1644 2.9594C60.8029 22.429 53.233 41.3059 47.0854 58.5057C46.2194 60.9594 45.4762 63.5773 44.4864 63.4544C37.288 62.4929 19.3417 58.0968 19.3004 58.0968C18.1454 57.851 16.9285 57.8923 15.7724 57.6671C10.9047 56.6448 9.85297 55.99 7.1301 55.9487C-0.29639 55.9487 0.467443 55.704 0.240356 55.0905C4.01499 47.0932 5.99576 44.2512 12.1423 19.239C17.4229 -2.17312 10.5331 1.38451 20.9096 1.24203C20.9096 1.24203 28.8511 0.424136 31.4294 0.382806C32.8734 0.362141 29.6345 0.321901 43.5998 1.46717Z" fill="#006B99"/>
</svg>
