<svg width="16" height="16" viewBox="0 0 16 16" fill="none" xmlns="http://www.w3.org/2000/svg">
<path id="Vector" d="M7.80298 0.620605C9.2958 0.620605 10.756 1.0632 11.9978 1.89283C13.2396 2.72246 14.2093 3.90081 14.7803 5.28033C15.3514 6.65985 15.5028 8.17731 15.2115 9.64305C14.9202 11.1069 14.1997 12.4519 13.1438 13.5076C12.0879 14.5633 10.7426 15.2837 9.27854 15.575C7.81254 15.8662 6.29482 15.7149 4.91506 15.1439C3.53529 14.5729 2.35482 13.6053 1.52697 12.3619C0.697193 11.1203 0.254517 9.66028 0.254517 8.16772C0.256433 6.16742 1.05171 4.24759 2.46788 2.83358C3.88214 1.41766 5.80041 0.622521 7.80298 0.620605Z" fill="#F7CEDC"/>
</svg>
