<svg width="198" height="133" viewBox="0 0 198 133" fill="none" xmlns="http://www.w3.org/2000/svg">
<path id="Vector" d="M197.649 34.6995L181.633 119.149C179.392 117.83 177.065 116.671 174.664 115.682C175.633 108.512 175.283 104.531 173.776 102.273C173.996 101.897 174.148 101.486 174.225 101.059C174.416 100.052 174.201 99.0104 173.63 98.1632C173.058 97.316 172.176 96.7326 171.177 96.5409C170.177 96.3494 169.144 96.5655 168.304 97.1417C167.463 97.718 166.884 98.6072 166.694 99.6138C166.674 99.7302 166.654 99.8525 166.64 99.967C163.674 101.31 161.728 105.887 159.769 111.382L159.73 111.783C147.654 110.332 135.435 112.822 124.867 118.886C124.053 104.377 129.08 85.332 124.644 78.9575C124.87 78.583 125.026 78.1693 125.101 77.7375C125.207 77.1847 125.191 76.6152 125.055 76.0693C124.918 75.5234 124.666 75.0139 124.313 74.5769C123.962 74.1398 123.519 73.7855 123.016 73.5388C122.514 73.2923 121.965 73.1592 121.407 73.1491C120.848 73.139 120.294 73.2521 119.784 73.4804C119.274 73.7088 118.818 74.0468 118.45 74.4709C118.083 74.895 117.813 75.395 117.657 75.9356C117.502 76.4764 117.465 77.0448 117.55 77.6011C107.496 83.6787 105.855 121.565 92.7646 119.435C79.5856 117.284 99.1174 63.3313 89.3379 51.1442C89.638 50.7091 89.8419 50.2136 89.935 49.6916C90.0296 49.1933 90.0264 48.6813 89.9237 48.1845C89.8226 47.6877 89.6236 47.2159 89.3411 46.7964C89.0586 46.3766 88.6975 46.0172 88.2769 45.7386C87.8548 45.4599 87.3845 45.2674 86.8902 45.1721C86.3958 45.0769 85.887 45.0806 85.3943 45.1833C84.9015 45.2861 84.4328 45.4856 84.0171 45.7705C83.6014 46.0554 83.2435 46.4203 82.9675 46.8442C82.6914 47.2681 82.5004 47.7428 82.4057 48.241C82.3367 48.5938 82.319 48.9545 82.3511 49.3124C67.848 56.7041 67.047 135.645 46.143 132.112C25.6161 128.645 48.3435 66.1805 38.2895 53.7887C38.3633 53.5934 38.4195 53.3921 38.458 53.1868C38.5527 52.6881 38.5495 52.1754 38.4468 51.6781C38.3441 51.1808 38.1467 50.7087 37.8642 50.2887C37.5801 49.8686 37.2173 49.5089 36.7968 49.2301C36.3763 48.9511 35.9044 48.7585 35.4085 48.6633C34.9141 48.5681 34.4053 48.572 33.9126 48.6749C33.4182 48.7778 32.9495 48.9776 32.5338 49.2628C32.1165 49.5482 31.7602 49.9136 31.4825 50.338C31.2065 50.7622 31.0155 51.2373 30.9208 51.7362C30.8871 51.9198 30.8662 52.1055 30.8582 52.2919C16.6391 58.5881 8.76315 110.168 0.465088 109.056L21.0193 0.672363L197.649 34.6995ZM67.8592 19.2239C68.0133 18.4162 67.925 17.5809 67.6072 16.8235C67.2894 16.0662 66.7549 15.421 66.0744 14.9693C65.3922 14.5174 64.5929 14.2797 63.776 14.2858C62.9606 14.2919 62.1645 14.5417 61.4904 15.0036C60.8147 15.4656 60.2914 16.1189 59.9849 16.8809C59.6783 17.6428 59.6029 18.4794 59.7682 19.2847C59.9319 20.0899 60.3316 20.8278 60.9126 21.4048C61.4936 21.9817 62.2319 22.3721 63.0328 22.5265C64.1066 22.7295 65.2173 22.4963 66.1209 21.8775C67.0262 21.2589 67.6506 20.305 67.8592 19.2239ZM50.597 15.8932C50.7511 15.0855 50.6628 14.2502 50.345 13.4929C50.0272 12.7356 49.4943 12.0903 48.8122 11.6386C48.13 11.1867 47.3307 10.949 46.5154 10.9551C45.6984 10.9612 44.9039 11.211 44.2282 11.6729C43.5524 12.1349 43.0292 12.7882 42.7226 13.5502C42.4161 14.3121 42.3406 15.1487 42.506 15.954C42.6713 16.7592 43.0693 17.4971 43.6503 18.0741C44.2314 18.651 44.9697 19.0414 45.7706 19.1958C46.846 19.4027 47.9583 19.1709 48.8635 18.5517C49.7688 17.9324 50.3915 16.976 50.597 15.8932ZM33.3396 12.5725C33.492 11.7652 33.4038 10.9306 33.086 10.1741C32.7666 9.41739 32.2337 8.77292 31.5515 8.32187C30.871 7.87098 30.0717 7.63374 29.2563 7.64032C28.441 7.6469 27.6449 7.89698 26.9708 8.35895C26.2966 8.82091 25.7734 9.47405 25.4668 10.2357C25.1619 10.9973 25.0864 11.8333 25.2518 12.638C25.4171 13.4426 25.8151 14.1799 26.3961 14.7564C26.9772 15.333 27.7139 15.7229 28.5148 15.8771C29.5902 16.0818 30.7009 15.8489 31.6045 15.2295C32.5098 14.61 33.1325 13.6545 33.3396 12.5725Z" fill="white"/>
</svg>
