<svg width="108" height="154" viewBox="0 0 108 154" fill="none" xmlns="http://www.w3.org/2000/svg">
<path id="Vector" d="M89.7783 146.022C92.2455 145.342 94.3618 143.738 95.694 141.538C97.0263 139.337 97.4741 136.706 96.9459 134.185L96.7368 133.165C92.8094 113.795 94.8597 93.6775 102.612 75.5163C106.417 66.3846 107.611 56.3622 106.058 46.5827C104.505 36.803 100.268 27.6564 93.8257 20.1772C87.3832 12.698 78.9926 7.18477 69.6027 4.26099C60.2129 1.33721 50.1987 1.11971 40.6926 3.63289C31.1865 6.14592 22.5678 11.2896 15.8115 18.482C9.0551 25.6743 4.43049 34.6285 2.46094 44.3316C0.491232 54.0346 1.25523 64.0995 4.66611 73.3881C8.07714 82.6764 13.9991 90.8176 21.7622 96.8908C37.5398 109.173 49.2059 126.031 55.1909 145.196C55.83 147.247 57.1011 149.04 58.8194 150.315C60.5378 151.587 62.6142 152.278 64.7476 152.282C65.5712 152.281 66.3914 152.178 67.1905 151.978" stroke="#1F2223" stroke-width="2" stroke-linecap="round" stroke-linejoin="round"/>
</svg>
