<svg width="106" height="152" viewBox="0 0 106 152" fill="none" xmlns="http://www.w3.org/2000/svg">
<path id="Vector" d="M104.007 40.5281C106.961 51.8091 106.121 63.7586 101.618 74.507C93.8654 92.6683 91.8152 112.786 95.7425 132.156L95.9515 133.175C96.4799 135.698 96.0321 138.327 94.6998 140.528C93.3674 142.729 91.2512 144.334 88.7839 145.013L87.1334 145.446L87.1135 145.372L67.3012 69.1699C65.8618 76.9549 61.4995 76.9147 57.8042 74.1739C60.2153 68.6803 59.7235 59.7958 54.7082 61.1181C49.3584 62.5226 53.0139 70.6206 57.8042 74.1739C55.9268 78.4618 52.2791 80.6849 47.6502 74.3585L67.4585 150.571L67.4784 150.639L66.2001 150.979C65.401 151.178 64.5808 151.281 63.7573 151.284C61.6239 151.279 59.5474 150.589 57.829 149.315C56.1107 148.04 54.8397 146.247 54.2005 144.197C48.2128 125.031 36.5431 108.173 20.7619 95.8916C14.1506 90.7192 8.85777 84.0334 5.32219 76.3883C1.7866 68.7431 0.109974 60.3587 0.431303 51.9303C0.752633 43.5018 3.06277 35.2718 7.17007 27.9227C11.2774 20.5735 17.0636 14.3166 24.0493 9.67066C31.035 5.02471 39.0188 2.12356 47.339 1.20766C55.6592 0.291766 64.0762 1.38728 71.8924 4.40384C79.7087 7.42024 86.6989 12.2705 92.2838 18.5528C97.8688 24.835 101.888 32.3683 104.007 40.5281Z" fill="#FAE173"/>
</svg>
