<svg width="60" height="60" viewBox="0 0 60 60" fill="none" xmlns="http://www.w3.org/2000/svg">
<path id="Vector" d="M57.2214 2.33317C58.0472 2.33317 59.9551 2.49066 59.8367 5.30577C59.2076 20.7593 54.6257 47.8671 49.5711 58.3598C49.1973 59.1078 48.9615 59.1472 43.0421 58.9503C16.9641 58.0645 42.1174 59.5803 15.745 57.1589C7.7209 56.4108 -1.26694 58.7535 0.739893 53.5564C4.94806 42.729 5.99004 37.8075 9.72665 22.413C14.5846 2.33317 8.34999 0.364563 15.4896 0.364563C55.2548 0.423621 27.3677 1.30949 57.2214 2.33317ZM57.0247 5.95541C57.2409 4.24272 57.0247 5.73886 41.7828 3.9868C30.4752 2.76626 38.3221 3.02218 15.0767 3.02218C13.1101 17.2552 15.883 6.9594 11.5368 26.4289C7.97622 42.3943 8.35 41.8628 3.49318 54.1273C5.36094 54.58 8.54665 53.576 15.017 54.1273C39.777 56.4502 17.5149 55.0525 46.0116 55.6825C48.9615 55.6825 51.4986 40.032 53.6021 33.0238C55.0385 28.3188 54.6843 24.795 57.0247 5.95541Z" fill="#000001"/>
</svg>
