<svg width="57" height="77" viewBox="0 0 57 77" fill="none" xmlns="http://www.w3.org/2000/svg">
<path id="Vector" d="M56.574 6.86273C52.6407 67.162 53.447 47.1996 51.953 76.1577C48.8259 77.8903 33.9773 73.0471 28.8053 72.3586C22.2959 71.4722 22.4925 71.5321 22.0797 71.3352C19.0113 69.7212 16.9067 70.0942 6.01194 67.634C4.6353 67.3186 3.47487 66.5714 2.62954 66.492C-0.00640327 66.2168 1.13446 65.4294 1.44956 58.9525C2.00043 47.5542 8.37191 1.1146 8.41103 0.445709C10.1223 0.779611 23.0239 2.66991 23.7703 2.41431C26.2096 1.82373 28.4316 2.9255 30.772 3.26049C55.394 6.82356 44.0462 4.5004 56.574 6.86273Z" fill="#FFCCDD"/>
</svg>
