<svg width="120" height="203" viewBox="0 0 120 203" fill="none" xmlns="http://www.w3.org/2000/svg">
<path id="Vector" d="M1.52745 106.47L14.3696 87.9257C14.3696 87.9257 25.7171 70.0896 27.5854 63.9674C29.4537 57.8451 32.2856 49.3214 33.4853 44.5173C34.6849 39.7143 37.9299 29.6157 37.9299 29.6157C37.9299 29.6157 44.1248 16.2096 45.2851 14.4378C46.4454 12.6661 50.949 10.5006 53.6236 8.39389C56.2982 6.28715 73.2899 2.33036 76.2399 0.874022C79.1898 -0.583401 87.2334 1.01106 90.5177 0.874022C93.8019 0.735893 99.3673 1.97579 103.458 0.874022C107.549 -0.228834 115.789 0.0463302 115.867 3.58982C115.819 6.71567 115.549 9.8339 115.061 12.9217C115.061 12.9217 108.513 19.0439 113.095 21.8783C117.677 24.7138 121.158 29.1622 119.427 30.5402C117.731 31.5745 115.857 32.2826 113.901 32.6273C113.901 41.3088 113.33 38.8486 113.449 49.1441C113.132 50.3894 112.5 51.5314 111.615 52.4624C110.73 53.3934 109.621 54.0808 108.394 54.4593C104.323 55.5219 105.248 45.345 103.084 46.5849C96.8699 50.3252 95.3753 48.3566 95.0213 50.049C94.6673 51.7424 92.3466 56.0929 88.1774 63.2789C84.0081 70.4638 77.4985 85.1696 62.2571 93.5161C47.0157 101.864 43.1021 116.51 40.6241 121.293C38.1462 126.077 22.9638 159.228 11.1836 184.151L1.96011 202.538C1.30123 196.11 1.09751 189.643 1.35045 183.187C1.88144 174.741 0.898127 153.441 0.72113 144.208C0.544132 134.975 0.190139 110.565 1.52745 106.47Z" fill="#FFCEB6"/>
</svg>
